# xmcd CD database file
#
# Track frame offsets:
#	150
#	18701
#	37928
#	56528
#
# Disc length: 1006 seconds
#
# Revision: 1
# Processed by: cddbd v1.5.1PL2 Copyright (c) Steve Scherf et al.
# Submitted via: CDex 1.51
#
DISCID=2a03ec04
DTITLE=CHiYO - ひこうき雲
DYEAR=2006
DGENRE=J-pop
TTITLE0=ひこうき雲
TTITLE1=SEVEN’s　STAR
TTITLE2=ひこうき雲（inst）
TTITLE3=SEVEN’s　STAR（inst）
EXTD=YEAR: 2006
EXTT0=
EXTT1=
EXTT2=
EXTT3=
PLAYORDER=
